<svg width="76" height="76" viewBox="0 0 76 76" fill="none" xmlns="http://www.w3.org/2000/svg">
<rect opacity="0.136765" width="76" height="76" rx="11" fill="#717CFF"/>
<path d="M33.0562 35H29.2461V20.3135L24.6978 21.7241V18.626L32.6475 15.7783H33.0562V35ZM52.3569 17.9404L44.9346 35H40.9136L48.3491 18.8896H38.8042V15.8047H52.3569V17.9404Z" fill="#717CFF"/>
<path d="M34.8203 52.8652C34.8203 54.1133 34.5889 55.2178 34.126 56.1787C33.6631 57.1396 33.0039 57.8809 32.1484 58.4023C31.2988 58.918 30.3291 59.1758 29.2393 59.1758C28.1494 59.1758 27.1826 58.9268 26.3389 58.4287C25.4951 57.9248 24.8359 57.207 24.3613 56.2754C23.8926 55.3438 23.6465 54.2744 23.623 53.0674V52.3467C23.623 51.0928 23.8516 49.9883 24.3086 49.0332C24.7715 48.0723 25.4307 47.3311 26.2861 46.8096C27.1475 46.2881 28.126 46.0273 29.2217 46.0273C30.3057 46.0273 31.2725 46.2852 32.1221 46.8008C32.9717 47.3164 33.6309 48.0518 34.0996 49.0068C34.5742 49.9561 34.8145 51.0459 34.8203 52.2764V52.8652ZM31.6826 52.3291C31.6826 51.0576 31.4688 50.0938 31.041 49.4375C30.6191 48.7754 30.0127 48.4443 29.2217 48.4443C27.6748 48.4443 26.8574 49.6045 26.7695 51.9248L26.7607 52.8652C26.7607 54.1191 26.9688 55.083 27.3848 55.7568C27.8008 56.4307 28.4189 56.7676 29.2393 56.7676C30.0186 56.7676 30.6191 56.4365 31.041 55.7744C31.4629 55.1123 31.6768 54.1602 31.6826 52.918V52.3291ZM40.2959 56.8906C40.7119 56.8906 41.0342 56.7793 41.2627 56.5566C41.4912 56.3281 41.6025 56.0117 41.5967 55.6074H44.374C44.374 56.6504 43.999 57.5059 43.249 58.1738C42.5049 58.8418 41.5439 59.1758 40.3662 59.1758C38.9834 59.1758 37.8936 58.7422 37.0967 57.875C36.2998 57.0078 35.9014 55.8066 35.9014 54.2715V54.1484C35.9014 53.1875 36.0771 52.3408 36.4287 51.6084C36.7861 50.8701 37.2988 50.3047 37.9668 49.9121C38.6348 49.5137 39.4258 49.3145 40.3398 49.3145C41.5762 49.3145 42.5576 49.6572 43.2842 50.3428C44.0107 51.0283 44.374 51.957 44.374 53.1289H41.5967C41.5967 52.6367 41.4766 52.2588 41.2363 51.9951C40.9961 51.7314 40.6738 51.5996 40.2695 51.5996C39.502 51.5996 39.0537 52.0889 38.9248 53.0674C38.8838 53.3779 38.8633 53.8057 38.8633 54.3506C38.8633 55.3057 38.9775 55.9678 39.2061 56.3369C39.4346 56.7061 39.7979 56.8906 40.2959 56.8906ZM49.0762 47.126V49.4902H50.6406V51.5469H49.0762V55.8975C49.0762 56.2549 49.1406 56.5039 49.2695 56.6445C49.3984 56.7852 49.6533 56.8555 50.0342 56.8555C50.3271 56.8555 50.5732 56.8379 50.7725 56.8027V58.9209C50.2393 59.0908 49.6826 59.1758 49.1025 59.1758C48.083 59.1758 47.3301 58.9355 46.8438 58.4551C46.3574 57.9746 46.1143 57.2451 46.1143 56.2666V51.5469H44.9014V49.4902H46.1143V47.126H49.0762Z" fill="#717CFF"/>
</svg>
