<svg width="76" height="76" viewBox="0 0 76 76" fill="none" xmlns="http://www.w3.org/2000/svg">
<rect opacity="0.136765" width="76" height="76" rx="11" fill="#717CFF"/>
<path d="M36.9585 35H23.8013V32.3896L30.0107 25.7715C30.8633 24.8398 31.4917 24.0269 31.896 23.3325C32.3091 22.6382 32.5156 21.979 32.5156 21.355C32.5156 20.5024 32.3003 19.8345 31.8696 19.3511C31.439 18.8589 30.8237 18.6128 30.0239 18.6128C29.1626 18.6128 28.4814 18.9116 27.9805 19.5093C27.4883 20.0981 27.2422 20.876 27.2422 21.8428H23.4189C23.4189 20.6738 23.6958 19.606 24.2495 18.6392C24.812 17.6724 25.603 16.9165 26.6226 16.3716C27.6421 15.8179 28.7979 15.541 30.0898 15.541C32.0674 15.541 33.6011 16.0156 34.6909 16.9648C35.7896 17.9141 36.3389 19.2544 36.3389 20.9858C36.3389 21.9351 36.0928 22.9019 35.6006 23.8862C35.1084 24.8706 34.2646 26.0176 33.0693 27.3271L28.7056 31.9282H36.9585V35ZM43.1812 23.7148H45.2114C46.1782 23.7148 46.8945 23.4731 47.3604 22.9897C47.8262 22.5063 48.0591 21.8647 48.0591 21.0649C48.0591 20.2915 47.8262 19.6895 47.3604 19.2588C46.9033 18.8281 46.2705 18.6128 45.4619 18.6128C44.7324 18.6128 44.1216 18.8149 43.6294 19.2192C43.1372 19.6147 42.8911 20.1333 42.8911 20.7749H39.0811C39.0811 19.7729 39.3491 18.8765 39.8853 18.0854C40.4302 17.2856 41.186 16.6616 42.1528 16.2134C43.1284 15.7651 44.2007 15.541 45.3696 15.541C47.3999 15.541 48.9907 16.0288 50.1421 17.0044C51.2935 17.9712 51.8691 19.3071 51.8691 21.0122C51.8691 21.8911 51.6011 22.6997 51.0649 23.438C50.5288 24.1763 49.8257 24.7432 48.9556 25.1387C50.0366 25.5254 50.8408 26.1055 51.3682 26.8789C51.9043 27.6523 52.1724 28.5664 52.1724 29.6211C52.1724 31.3262 51.5483 32.6929 50.3003 33.7212C49.061 34.7495 47.4175 35.2637 45.3696 35.2637C43.4536 35.2637 41.8848 34.7583 40.6631 33.7476C39.4502 32.7368 38.8438 31.4009 38.8438 29.7397H42.6538C42.6538 30.4604 42.9219 31.0493 43.458 31.5063C44.0029 31.9634 44.6709 32.1919 45.4619 32.1919C46.3672 32.1919 47.0747 31.9546 47.5845 31.48C48.103 30.9966 48.3623 30.3594 48.3623 29.5684C48.3623 27.6523 47.3076 26.6943 45.1982 26.6943H43.1812V23.7148Z" fill="#717CFF"/>
<path d="M23.0684 59V46.2031H27.1904C28.3213 46.2031 29.3379 46.4609 30.2402 46.9766C31.1426 47.4863 31.8457 48.21 32.3496 49.1475C32.8594 50.0791 33.1172 51.125 33.123 52.2852V52.874C33.123 54.0459 32.874 55.0977 32.376 56.0293C31.8838 56.9551 31.1865 57.6816 30.2842 58.209C29.3877 58.7305 28.3857 58.9941 27.2783 59H23.0684ZM26.1533 48.585V56.627H27.2256C28.1104 56.627 28.79 56.3135 29.2646 55.6865C29.7393 55.0537 29.9766 54.1162 29.9766 52.874V52.3203C29.9766 51.084 29.7393 50.1523 29.2646 49.5254C28.79 48.8984 28.0986 48.585 27.1904 48.585H26.1533ZM39.1699 59.1758C37.7109 59.1758 36.5303 58.7422 35.6279 57.875C34.7256 57.002 34.2744 55.8682 34.2744 54.4736V54.2275C34.2744 53.2549 34.4531 52.3965 34.8105 51.6523C35.1738 50.9082 35.7012 50.334 36.3926 49.9297C37.084 49.5195 37.9043 49.3145 38.8535 49.3145C40.1895 49.3145 41.2441 49.7305 42.0176 50.5625C42.791 51.3887 43.1777 52.543 43.1777 54.0254V55.1768H37.2891C37.3945 55.71 37.626 56.1289 37.9834 56.4336C38.3408 56.7383 38.8037 56.8906 39.3721 56.8906C40.3096 56.8906 41.042 56.5625 41.5693 55.9062L42.9229 57.5059C42.5537 58.0156 42.0293 58.4229 41.3496 58.7275C40.6758 59.0264 39.9492 59.1758 39.1699 59.1758ZM38.8359 51.5996C37.9688 51.5996 37.4531 52.1738 37.2891 53.3223H40.2773V53.0938C40.2891 52.6191 40.1689 52.2529 39.917 51.9951C39.665 51.7314 39.3047 51.5996 38.8359 51.5996ZM48.3984 56.8906C48.8145 56.8906 49.1367 56.7793 49.3652 56.5566C49.5938 56.3281 49.7051 56.0117 49.6992 55.6074H52.4766C52.4766 56.6504 52.1016 57.5059 51.3516 58.1738C50.6074 58.8418 49.6465 59.1758 48.4688 59.1758C47.0859 59.1758 45.9961 58.7422 45.1992 57.875C44.4023 57.0078 44.0039 55.8066 44.0039 54.2715V54.1484C44.0039 53.1875 44.1797 52.3408 44.5312 51.6084C44.8887 50.8701 45.4014 50.3047 46.0693 49.9121C46.7373 49.5137 47.5283 49.3145 48.4424 49.3145C49.6787 49.3145 50.6602 49.6572 51.3867 50.3428C52.1133 51.0283 52.4766 51.957 52.4766 53.1289H49.6992C49.6992 52.6367 49.5791 52.2588 49.3389 51.9951C49.0986 51.7314 48.7764 51.5996 48.3721 51.5996C47.6045 51.5996 47.1562 52.0889 47.0273 53.0674C46.9863 53.3779 46.9658 53.8057 46.9658 54.3506C46.9658 55.3057 47.0801 55.9678 47.3086 56.3369C47.5371 56.7061 47.9004 56.8906 48.3984 56.8906Z" fill="#717CFF"/>
</svg>
