<svg width="129" height="21" viewBox="0 0 129 21" fill="none" xmlns="http://www.w3.org/2000/svg">
<path d="M39.5312 15H36.8906V6.59375L34.2969 7.35156V5.35156L39.2891 3.625H39.5312V15ZM50.8672 5.03125L46.6172 15H43.8359L48.0938 5.65625H42.6719V3.625H50.8672V5.03125ZM62.8359 12.875H59.0781L58.4219 15H55.4922L59.6641 3.625H62.2422L66.4453 15H63.5L62.8359 12.875ZM59.7344 10.7578H62.1797L60.9531 6.8125L59.7344 10.7578ZM74.6328 10.8359C74.6328 12.1484 74.3359 13.1979 73.7422 13.9844C73.1536 14.7656 72.3568 15.1562 71.3516 15.1562C70.5755 15.1562 69.9375 14.8724 69.4375 14.3047V18.25H66.8047V6.54688H69.2656L69.3438 7.32812C69.849 6.70312 70.513 6.39062 71.3359 6.39062C72.3776 6.39062 73.1875 6.77604 73.7656 7.54688C74.3438 8.3125 74.6328 9.36719 74.6328 10.7109V10.8359ZM72 10.6719C72 9.17188 71.5625 8.42188 70.6875 8.42188C70.0625 8.42188 69.6458 8.64583 69.4375 9.09375V12.4219C69.6667 12.8906 70.0885 13.125 70.7031 13.125C71.5417 13.125 71.974 12.401 72 10.9531V10.6719ZM80.9141 8.92969L80.0469 8.86719C79.2188 8.86719 78.6875 9.1276 78.4531 9.64844V15H75.8203V6.54688H78.2891L78.375 7.63281C78.8177 6.80469 79.4349 6.39062 80.2266 6.39062C80.5078 6.39062 80.7526 6.42188 80.9609 6.48438L80.9141 8.92969ZM93.7422 15H85.8047V13.2812L89.4609 9.4375C90.362 8.41146 90.8125 7.59635 90.8125 6.99219C90.8125 6.5026 90.7057 6.13021 90.4922 5.875C90.2786 5.61979 89.9688 5.49219 89.5625 5.49219C89.1615 5.49219 88.8359 5.66406 88.5859 6.00781C88.3359 6.34635 88.2109 6.77083 88.2109 7.28125H85.5703C85.5703 6.58333 85.7448 5.9401 86.0938 5.35156C86.4427 4.75781 86.9271 4.29427 87.5469 3.96094C88.1667 3.6276 88.8594 3.46094 89.625 3.46094C90.8542 3.46094 91.7995 3.74479 92.4609 4.3125C93.1276 4.88021 93.4609 5.69531 93.4609 6.75781C93.4609 7.20573 93.3776 7.64323 93.2109 8.07031C93.0443 8.49219 92.7839 8.9375 92.4297 9.40625C92.0807 9.86979 91.5156 10.4922 90.7344 11.2734L89.2656 12.9688H93.7422V15ZM102.969 10.3516C102.969 11.888 102.622 13.0729 101.93 13.9062C101.242 14.7396 100.271 15.1562 99.0156 15.1562C97.75 15.1562 96.7708 14.737 96.0781 13.8984C95.3854 13.0599 95.0391 11.8776 95.0391 10.3516V8.27344C95.0391 6.73698 95.3828 5.55208 96.0703 4.71875C96.763 3.88542 97.7396 3.46875 99 3.46875C100.26 3.46875 101.237 3.88802 101.93 4.72656C102.622 5.5651 102.969 6.75 102.969 8.28125V10.3516ZM100.336 7.9375C100.336 7.11979 100.229 6.51042 100.016 6.10938C99.8021 5.70312 99.4635 5.5 99 5.5C98.5469 5.5 98.2161 5.6875 98.0078 6.0625C97.8047 6.4375 97.6953 7.00521 97.6797 7.76562V10.6719C97.6797 11.5208 97.7865 12.1432 98 12.5391C98.2135 12.9297 98.5521 13.125 99.0156 13.125C99.4635 13.125 99.7943 12.9349 100.008 12.5547C100.221 12.1693 100.331 11.5677 100.336 10.75V7.9375ZM112.273 15H104.336V13.2812L107.992 9.4375C108.893 8.41146 109.344 7.59635 109.344 6.99219C109.344 6.5026 109.237 6.13021 109.023 5.875C108.81 5.61979 108.5 5.49219 108.094 5.49219C107.693 5.49219 107.367 5.66406 107.117 6.00781C106.867 6.34635 106.742 6.77083 106.742 7.28125H104.102C104.102 6.58333 104.276 5.9401 104.625 5.35156C104.974 4.75781 105.458 4.29427 106.078 3.96094C106.698 3.6276 107.391 3.46094 108.156 3.46094C109.385 3.46094 110.331 3.74479 110.992 4.3125C111.659 4.88021 111.992 5.69531 111.992 6.75781C111.992 7.20573 111.909 7.64323 111.742 8.07031C111.576 8.49219 111.315 8.9375 110.961 9.40625C110.612 9.86979 110.047 10.4922 109.266 11.2734L107.797 12.9688H112.273V15ZM121.5 10.3516C121.5 11.888 121.154 13.0729 120.461 13.9062C119.773 14.7396 118.802 15.1562 117.547 15.1562C116.281 15.1562 115.302 14.737 114.609 13.8984C113.917 13.0599 113.57 11.8776 113.57 10.3516V8.27344C113.57 6.73698 113.914 5.55208 114.602 4.71875C115.294 3.88542 116.271 3.46875 117.531 3.46875C118.792 3.46875 119.768 3.88802 120.461 4.72656C121.154 5.5651 121.5 6.75 121.5 8.28125V10.3516ZM118.867 7.9375C118.867 7.11979 118.76 6.51042 118.547 6.10938C118.333 5.70312 117.995 5.5 117.531 5.5C117.078 5.5 116.747 5.6875 116.539 6.0625C116.336 6.4375 116.227 7.00521 116.211 7.76562V10.6719C116.211 11.5208 116.318 12.1432 116.531 12.5391C116.745 12.9297 117.083 13.125 117.547 13.125C117.995 13.125 118.326 12.9349 118.539 12.5547C118.753 12.1693 118.862 11.5677 118.867 10.75V7.9375Z" fill="#565656"/>
<path fill-rule="evenodd" clip-rule="evenodd" d="M6.38749 5.66447H7.83124V4.9046H13.6062V5.66447H15.05V4.9046H16.4937V7.18421H4.94375V4.9046H6.38749V5.66447ZM4.94375 8.70395V16.3026H16.4937V8.70395H4.94375ZM7.83124 3.38487H13.6062V2.625H15.05V3.38487H16.4938C17.2911 3.38487 17.9375 4.06528 17.9375 4.90461V16.3026C17.9375 17.142 17.2911 17.8224 16.4938 17.8224H4.94375C4.14639 17.8224 3.5 17.142 3.5 16.3026V4.90461C3.5 4.06528 4.14639 3.38487 4.94375 3.38487H6.38749V2.625H7.83124V3.38487Z" fill="#565656"/>
</svg>
