<svg width="196" height="28" viewBox="0 0 196 28" fill="none" xmlns="http://www.w3.org/2000/svg">
<path d="M47.9601 19H45.3195V10.5938L42.7257 11.3516V9.35156L47.7179 7.625H47.9601V19ZM59.7327 14.3516C59.7327 15.888 59.3863 17.0729 58.6936 17.9062C58.0061 18.7396 57.0347 19.1562 55.7795 19.1562C54.5139 19.1562 53.5347 18.737 52.842 17.8984C52.1493 17.0599 51.803 15.8776 51.803 14.3516V12.2734C51.803 10.737 52.1467 9.55208 52.8342 8.71875C53.5269 7.88542 54.5035 7.46875 55.7639 7.46875C57.0243 7.46875 58.0009 7.88802 58.6936 8.72656C59.3863 9.5651 59.7327 10.75 59.7327 12.2812V14.3516ZM57.0998 11.9375C57.0998 11.1198 56.9931 10.5104 56.7795 10.1094C56.566 9.70312 56.2274 9.5 55.7639 9.5C55.3108 9.5 54.98 9.6875 54.7717 10.0625C54.5686 10.4375 54.4592 11.0052 54.4436 11.7656V14.6719C54.4436 15.5208 54.5504 16.1432 54.7639 16.5391C54.9774 16.9297 55.316 17.125 55.7795 17.125C56.2274 17.125 56.5582 16.9349 56.7717 16.5547C56.9853 16.1693 57.0946 15.5677 57.0998 14.75V11.9375ZM63.224 16.4453C63.6406 16.4453 63.987 16.5703 64.263 16.8203C64.5391 17.0651 64.6771 17.3802 64.6771 17.7656C64.6771 18.151 64.5391 18.4688 64.263 18.7188C63.987 18.9635 63.6406 19.0859 63.224 19.0859C62.8021 19.0859 62.4531 18.9609 62.1771 18.7109C61.9063 18.4609 61.7708 18.1458 61.7708 17.7656C61.7708 17.3854 61.9063 17.0703 62.1771 16.8203C62.4531 16.5703 62.8021 16.4453 63.224 16.4453ZM63.224 10.2109C63.6406 10.2109 63.987 10.3359 64.263 10.5859C64.5391 10.8307 64.6771 11.1458 64.6771 11.5312C64.6771 11.9167 64.5391 12.2344 64.263 12.4844C63.987 12.7292 63.6406 12.8516 63.224 12.8516C62.8021 12.8516 62.4531 12.7266 62.1771 12.4766C61.9063 12.2266 61.7708 11.9115 61.7708 11.5312C61.7708 11.151 61.9063 10.8359 62.1771 10.5859C62.4531 10.3359 62.8021 10.2109 63.224 10.2109ZM74.6997 14.3516C74.6997 15.888 74.3533 17.0729 73.6606 17.9062C72.9731 18.7396 72.0017 19.1562 70.7465 19.1562C69.4809 19.1562 68.5017 18.737 67.809 17.8984C67.1163 17.0599 66.77 15.8776 66.77 14.3516V12.2734C66.77 10.737 67.1137 9.55208 67.8012 8.71875C68.4939 7.88542 69.4705 7.46875 70.7309 7.46875C71.9913 7.46875 72.9679 7.88802 73.6606 8.72656C74.3533 9.5651 74.6997 10.75 74.6997 12.2812V14.3516ZM72.0669 11.9375C72.0669 11.1198 71.9601 10.5104 71.7465 10.1094C71.533 9.70312 71.1945 9.5 70.7309 9.5C70.2778 9.5 69.9471 9.6875 69.7387 10.0625C69.5356 10.4375 69.4262 11.0052 69.4106 11.7656V14.6719C69.4106 15.5208 69.5174 16.1432 69.7309 16.5391C69.9445 16.9297 70.283 17.125 70.7465 17.125C71.1945 17.125 71.5252 16.9349 71.7387 16.5547C71.9523 16.1693 72.0616 15.5677 72.0669 14.75V11.9375ZM84.4097 14.3516C84.4097 15.888 84.0634 17.0729 83.3707 17.9062C82.6832 18.7396 81.7118 19.1562 80.4566 19.1562C79.191 19.1562 78.2118 18.737 77.5191 17.8984C76.8264 17.0599 76.48 15.8776 76.48 14.3516V12.2734C76.48 10.737 76.8238 9.55208 77.5113 8.71875C78.204 7.88542 79.1806 7.46875 80.441 7.46875C81.7014 7.46875 82.678 7.88802 83.3707 8.72656C84.0634 9.5651 84.4097 10.75 84.4097 12.2812V14.3516ZM81.7769 11.9375C81.7769 11.1198 81.6701 10.5104 81.4566 10.1094C81.2431 9.70312 80.9045 9.5 80.441 9.5C79.9879 9.5 79.6571 9.6875 79.4488 10.0625C79.2457 10.4375 79.1363 11.0052 79.1207 11.7656V14.6719C79.1207 15.5208 79.2274 16.1432 79.441 16.5391C79.6545 16.9297 79.9931 17.125 80.4566 17.125C80.9045 17.125 81.2353 16.9349 81.4488 16.5547C81.6623 16.1693 81.7717 15.5677 81.7769 14.75V11.9375ZM97.2752 16.875H93.5174L92.8611 19H89.9314L94.1033 7.625H96.6814L100.885 19H97.9392L97.2752 16.875ZM94.1736 14.7578H96.6189L95.3924 10.8125L94.1736 14.7578ZM105.767 7.625L108.306 15.5391L110.837 7.625H114.446V19H111.696V16.3438L111.962 10.9062L109.212 19H107.399L104.642 10.8984L104.907 16.3438V19H102.165V7.625H105.767ZM126.093 15.1172H121.398V13.0781H126.093V15.1172ZM140.919 19H132.982V17.2812L136.638 13.4375C137.539 12.4115 137.99 11.5964 137.99 10.9922C137.99 10.5026 137.883 10.1302 137.669 9.875C137.456 9.61979 137.146 9.49219 136.74 9.49219C136.339 9.49219 136.013 9.66406 135.763 10.0078C135.513 10.3464 135.388 10.7708 135.388 11.2812H132.747C132.747 10.5833 132.922 9.9401 133.271 9.35156C133.62 8.75781 134.104 8.29427 134.724 7.96094C135.344 7.6276 136.036 7.46094 136.802 7.46094C138.031 7.46094 138.977 7.74479 139.638 8.3125C140.305 8.88021 140.638 9.69531 140.638 10.7578C140.638 11.2057 140.555 11.6432 140.388 12.0703C140.221 12.4922 139.961 12.9375 139.607 13.4062C139.258 13.8698 138.693 14.4922 137.911 15.2734L136.443 16.9688H140.919V19ZM144.372 16.4453C144.788 16.4453 145.135 16.5703 145.411 16.8203C145.687 17.0651 145.825 17.3802 145.825 17.7656C145.825 18.151 145.687 18.4688 145.411 18.7188C145.135 18.9635 144.788 19.0859 144.372 19.0859C143.95 19.0859 143.601 18.9609 143.325 18.7109C143.054 18.4609 142.918 18.1458 142.918 17.7656C142.918 17.3854 143.054 17.0703 143.325 16.8203C143.601 16.5703 143.95 16.4453 144.372 16.4453ZM144.372 10.2109C144.788 10.2109 145.135 10.3359 145.411 10.5859C145.687 10.8307 145.825 11.1458 145.825 11.5312C145.825 11.9167 145.687 12.2344 145.411 12.4844C145.135 12.7292 144.788 12.8516 144.372 12.8516C143.95 12.8516 143.601 12.7266 143.325 12.4766C143.054 12.2266 142.918 11.9115 142.918 11.5312C142.918 11.151 143.054 10.8359 143.325 10.5859C143.601 10.3359 143.95 10.2109 144.372 10.2109ZM155.847 14.3516C155.847 15.888 155.501 17.0729 154.808 17.9062C154.121 18.7396 153.149 19.1562 151.894 19.1562C150.628 19.1562 149.649 18.737 148.957 17.8984C148.264 17.0599 147.918 15.8776 147.918 14.3516V12.2734C147.918 10.737 148.261 9.55208 148.949 8.71875C149.641 7.88542 150.618 7.46875 151.878 7.46875C153.139 7.46875 154.115 7.88802 154.808 8.72656C155.501 9.5651 155.847 10.75 155.847 12.2812V14.3516ZM153.214 11.9375C153.214 11.1198 153.108 10.5104 152.894 10.1094C152.681 9.70312 152.342 9.5 151.878 9.5C151.425 9.5 151.095 9.6875 150.886 10.0625C150.683 10.4375 150.574 11.0052 150.558 11.7656V14.6719C150.558 15.5208 150.665 16.1432 150.878 16.5391C151.092 16.9297 151.431 17.125 151.894 17.125C152.342 17.125 152.673 16.9349 152.886 16.5547C153.1 16.1693 153.209 15.5677 153.214 14.75V11.9375ZM165.557 14.3516C165.557 15.888 165.211 17.0729 164.518 17.9062C163.831 18.7396 162.859 19.1562 161.604 19.1562C160.339 19.1562 159.359 18.737 158.667 17.8984C157.974 17.0599 157.628 15.8776 157.628 14.3516V12.2734C157.628 10.737 157.971 9.55208 158.659 8.71875C159.352 7.88542 160.328 7.46875 161.589 7.46875C162.849 7.46875 163.826 7.88802 164.518 8.72656C165.211 9.5651 165.557 10.75 165.557 12.2812V14.3516ZM162.924 11.9375C162.924 11.1198 162.818 10.5104 162.604 10.1094C162.391 9.70312 162.052 9.5 161.589 9.5C161.135 9.5 160.805 9.6875 160.596 10.0625C160.393 10.4375 160.284 11.0052 160.268 11.7656V14.6719C160.268 15.5208 160.375 16.1432 160.589 16.5391C160.802 16.9297 161.141 17.125 161.604 17.125C162.052 17.125 162.383 16.9349 162.596 16.5547C162.81 16.1693 162.919 15.5677 162.924 14.75V11.9375ZM174.704 15.1406V19H171.962V7.625H176.501C177.371 7.625 178.139 7.78646 178.806 8.10938C179.477 8.42708 179.996 8.88281 180.36 9.47656C180.73 10.0651 180.915 10.7344 180.915 11.4844C180.915 12.5938 180.516 13.4818 179.72 14.1484C178.928 14.8099 177.839 15.1406 176.454 15.1406H174.704ZM174.704 13.0234H176.501C177.032 13.0234 177.436 12.8906 177.712 12.625C177.993 12.3594 178.134 11.9844 178.134 11.5C178.134 10.9688 177.99 10.5443 177.704 10.2266C177.418 9.90885 177.027 9.7474 176.532 9.74219H174.704V13.0234ZM186.43 7.625L188.969 15.5391L191.5 7.625H195.109V19H192.359V16.3438L192.625 10.9062L189.875 19H188.062L185.305 10.8984L185.57 16.3438V19H182.828V7.625H186.43Z" fill="#373737"/>
<path fill-rule="evenodd" clip-rule="evenodd" d="M40 22.3333C44.6024 22.3333 48.3334 18.6023 48.3334 14C48.3334 9.39761 44.6024 5.66666 40 5.66666C35.3976 5.66666 31.6667 9.39761 31.6667 14C31.6667 18.6023 35.3976 22.3333 40 22.3333ZM40 20.6667C43.6819 20.6667 46.6667 17.6819 46.6667 14C46.6667 10.3181 43.6819 7.33332 40 7.33332C36.3181 7.33332 33.3334 10.3181 33.3334 14C33.3334 17.6819 36.3181 20.6667 40 20.6667ZM39.1667 9.83332H37.5V15.6667H43.3334V14H39.1667V9.83332Z" fill="#2D2D2D"/>
<mask id="mask0_2920_176" style="mask-type:alpha" maskUnits="userSpaceOnUse" x="31" y="5" width="18" height="18">
<path fill-rule="evenodd" clip-rule="evenodd" d="M40 22.3333C44.6024 22.3333 48.3334 18.6023 48.3334 14C48.3334 9.39761 44.6024 5.66666 40 5.66666C35.3976 5.66666 31.6667 9.39761 31.6667 14C31.6667 18.6023 35.3976 22.3333 40 22.3333ZM40 20.6667C43.6819 20.6667 46.6667 17.6819 46.6667 14C46.6667 10.3181 43.6819 7.33332 40 7.33332C36.3181 7.33332 33.3334 10.3181 33.3334 14C33.3334 17.6819 36.3181 20.6667 40 20.6667ZM39.1667 9.83332H37.5V15.6667H43.3334V14H39.1667V9.83332Z" fill="white"/>
</mask>
<g mask="url(#mask0_2920_176)">
</g>
</svg>
